<svg width="161" height="194" viewBox="0 0 161 194" fill="none" xmlns="http://www.w3.org/2000/svg">
<path d="M32.208 155.286V156.246C31.184 156.374 30.4 156.646 29.856 157.062C29.344 157.446 29.008 158.07 28.848 158.934C28.688 159.798 28.608 161.014 28.608 162.582V175.302C28.608 177.382 28.464 179.286 28.176 181.014C27.888 182.742 27.376 184.23 26.64 185.478C25.808 186.854 24.592 187.942 22.992 188.742C21.392 189.542 19.36 189.942 16.896 189.942C15.424 189.942 13.92 189.766 12.384 189.414C10.848 189.094 9.472 188.47 8.256 187.542C7.232 186.678 6.448 185.702 5.904 184.614C5.36 183.526 4.992 182.246 4.8 180.774C4.608 179.27 4.512 177.494 4.512 175.446V160.374C4.512 159.19 4.416 158.326 4.224 157.782C4.064 157.206 3.728 156.822 3.216 156.63C2.704 156.406 1.936 156.278 0.912 156.246V155.286C1.712 155.318 2.784 155.35 4.128 155.382C5.504 155.414 6.928 155.43 8.4 155.43C9.872 155.43 11.28 155.414 12.624 155.382C14 155.35 15.136 155.318 16.032 155.286V156.246C14.944 156.278 14.112 156.406 13.536 156.63C12.992 156.822 12.624 157.206 12.432 157.782C12.24 158.326 12.144 159.19 12.144 160.374V178.47C12.144 180.07 12.24 181.494 12.432 182.742C12.656 183.958 13.008 184.982 13.488 185.814C14 186.614 14.688 187.222 15.552 187.638C16.416 188.054 17.488 188.262 18.768 188.262C21.008 188.262 22.752 187.734 24 186.678C25.28 185.622 26.176 184.166 26.688 182.31C27.232 180.422 27.504 178.262 27.504 175.83V163.158C27.504 161.398 27.392 160.054 27.168 159.126C26.944 158.166 26.496 157.478 25.824 157.062C25.184 156.646 24.192 156.374 22.848 156.246V155.286C23.456 155.318 24.256 155.35 25.248 155.382C26.24 155.414 27.168 155.43 28.032 155.43C28.8 155.43 29.552 155.414 30.288 155.382C31.056 155.35 31.696 155.318 32.208 155.286ZM53.7049 163.782C55.0489 163.782 56.1369 163.958 56.9689 164.31C57.8329 164.63 58.5049 165.078 58.9849 165.654C59.4969 166.262 59.8649 167.046 60.0889 168.006C60.3449 168.966 60.4729 170.262 60.4729 171.894V184.806C60.4729 186.15 60.6969 187.062 61.1449 187.542C61.6249 188.022 62.4249 188.262 63.5449 188.262V189.27C62.9369 189.238 62.0249 189.206 60.8089 189.174C59.5929 189.11 58.3929 189.078 57.2089 189.078C55.9929 189.078 54.7929 189.11 53.6089 189.174C52.4569 189.206 51.5769 189.238 50.9689 189.27V188.262C51.9289 188.262 52.6009 188.022 52.9849 187.542C53.3689 187.062 53.5609 186.15 53.5609 184.806V169.878C53.5609 169.078 53.4809 168.39 53.3209 167.814C53.1609 167.206 52.8729 166.742 52.4569 166.422C52.0409 166.07 51.4169 165.894 50.5849 165.894C49.7209 165.894 48.9209 166.134 48.1849 166.614C47.4809 167.094 46.9049 167.766 46.4569 168.63C46.0409 169.462 45.8329 170.406 45.8329 171.462V184.806C45.8329 186.15 46.0249 187.062 46.4089 187.542C46.8249 188.022 47.4969 188.262 48.4249 188.262V189.27C47.8489 189.238 47.0009 189.206 45.8809 189.174C44.7929 189.11 43.6569 189.078 42.4729 189.078C41.2569 189.078 40.0089 189.11 38.7289 189.174C37.4489 189.206 36.4889 189.238 35.8489 189.27V188.262C36.9689 188.262 37.7529 188.022 38.2009 187.542C38.6809 187.062 38.9209 186.15 38.9209 184.806V169.686C38.9209 168.246 38.6969 167.19 38.2489 166.518C37.8329 165.814 37.0329 165.462 35.8489 165.462V164.454C36.8729 164.55 37.8649 164.598 38.8249 164.598C40.1689 164.598 41.4169 164.55 42.5689 164.454C43.7529 164.326 44.8409 164.15 45.8329 163.926V168.246C46.6329 166.614 47.7209 165.462 49.0969 164.79C50.4729 164.118 52.0089 163.782 53.7049 163.782ZM73.9733 152.07C75.3173 152.07 76.3733 152.406 77.1413 153.078C77.9413 153.718 78.3413 154.614 78.3413 155.766C78.3413 156.918 77.9413 157.83 77.1413 158.502C76.3733 159.142 75.3173 159.462 73.9733 159.462C72.6293 159.462 71.5573 159.142 70.7573 158.502C69.9893 157.83 69.6053 156.918 69.6053 155.766C69.6053 154.614 69.9893 153.718 70.7573 153.078C71.5573 152.406 72.6293 152.07 73.9733 152.07ZM77.7173 163.926V184.806C77.7173 186.15 77.9413 187.062 78.3893 187.542C78.8693 188.022 79.6693 188.262 80.7893 188.262V189.27C80.2133 189.238 79.3173 189.206 78.1013 189.174C76.8853 189.11 75.6533 189.078 74.4053 189.078C73.1573 189.078 71.8933 189.11 70.6133 189.174C69.3333 189.206 68.3733 189.238 67.7333 189.27V188.262C68.8533 188.262 69.6373 188.022 70.0853 187.542C70.5653 187.062 70.8053 186.15 70.8053 184.806V169.686C70.8053 168.246 70.5813 167.19 70.1333 166.518C69.7173 165.814 68.9173 165.462 67.7333 165.462V164.454C68.7573 164.55 69.7493 164.598 70.7093 164.598C72.0533 164.598 73.3013 164.55 74.4533 164.454C75.6373 164.326 76.7253 164.15 77.7173 163.926Z" fill="white"/>
<path d="M98.6729 155.286V156.246C97.5849 156.278 96.7529 156.406 96.1769 156.63C95.6329 156.822 95.2649 157.206 95.0729 157.782C94.8809 158.326 94.7849 159.19 94.7849 160.374V184.758C94.7849 185.75 94.8489 186.486 94.9769 186.966C95.1369 187.446 95.4249 187.766 95.8409 187.926C96.2889 188.086 96.9449 188.166 97.8089 188.166H100.161C101.249 188.166 102.273 187.91 103.233 187.398C104.193 186.886 105.057 186.166 105.825 185.238C106.593 184.278 107.233 183.142 107.745 181.83C108.257 180.518 108.641 179.062 108.897 177.462H110.001C109.905 178.55 109.857 179.958 109.857 181.686C109.857 182.422 109.873 183.494 109.905 184.902C109.937 186.31 110.033 187.766 110.193 189.27C108.561 189.206 106.721 189.174 104.673 189.174C102.625 189.142 100.801 189.126 99.2009 189.126C98.4009 189.126 97.3769 189.126 96.1289 189.126C94.8809 189.126 93.5369 189.142 92.0969 189.174C90.6569 189.174 89.2009 189.19 87.7289 189.222C86.2569 189.222 84.8649 189.238 83.5529 189.27V188.31C84.5769 188.246 85.3449 188.118 85.8569 187.926C86.3689 187.734 86.7049 187.35 86.8649 186.774C87.0569 186.198 87.1529 185.334 87.1529 184.182V160.374C87.1529 159.19 87.0569 158.326 86.8649 157.782C86.7049 157.206 86.3529 156.822 85.8089 156.63C85.2969 156.406 84.5449 156.278 83.5529 156.246V155.286C84.3529 155.318 85.4249 155.35 86.7689 155.382C88.1449 155.414 89.6009 155.43 91.1369 155.43C92.5449 155.43 93.9209 155.414 95.2649 155.382C96.6409 155.35 97.7769 155.318 98.6729 155.286ZM121.057 152.07C122.401 152.07 123.457 152.406 124.225 153.078C125.025 153.718 125.425 154.614 125.425 155.766C125.425 156.918 125.025 157.83 124.225 158.502C123.457 159.142 122.401 159.462 121.057 159.462C119.713 159.462 118.641 159.142 117.841 158.502C117.073 157.83 116.689 156.918 116.689 155.766C116.689 154.614 117.073 153.718 117.841 153.078C118.641 152.406 119.713 152.07 121.057 152.07ZM124.801 163.926V184.806C124.801 186.15 125.025 187.062 125.473 187.542C125.953 188.022 126.753 188.262 127.873 188.262V189.27C127.297 189.238 126.401 189.206 125.185 189.174C123.969 189.11 122.737 189.078 121.489 189.078C120.241 189.078 118.977 189.11 117.697 189.174C116.417 189.206 115.457 189.238 114.817 189.27V188.262C115.937 188.262 116.721 188.022 117.169 187.542C117.649 187.062 117.889 186.15 117.889 184.806V169.686C117.889 168.246 117.665 167.19 117.217 166.518C116.801 165.814 116.001 165.462 114.817 165.462V164.454C115.841 164.55 116.833 164.598 117.793 164.598C119.137 164.598 120.385 164.55 121.537 164.454C122.721 164.326 123.809 164.15 124.801 163.926ZM148.821 163.782C151.317 163.782 153.381 164.806 155.013 166.854C156.677 168.87 157.509 171.99 157.509 176.214C157.509 179.542 156.997 182.214 155.973 184.23C154.981 186.246 153.653 187.702 151.989 188.598C150.325 189.494 148.501 189.942 146.517 189.942C145.205 189.942 143.989 189.718 142.869 189.27C141.749 188.822 140.789 188.086 139.989 187.062L140.661 186.822C141.237 187.526 141.909 188.054 142.677 188.406C143.477 188.758 144.261 188.934 145.029 188.934C146.789 188.934 148.101 187.942 148.965 185.958C149.829 183.974 150.261 180.95 150.261 176.886C150.261 174.134 150.085 171.958 149.733 170.358C149.413 168.726 148.933 167.574 148.293 166.902C147.653 166.198 146.885 165.846 145.989 165.846C144.869 165.846 143.845 166.31 142.917 167.238C141.989 168.134 141.461 169.398 141.333 171.03L141.093 169.35C141.669 167.526 142.645 166.15 144.021 165.222C145.397 164.262 146.997 163.782 148.821 163.782ZM141.477 151.734V188.31C140.677 188.182 139.861 188.182 139.029 188.31C138.197 188.438 137.429 188.662 136.725 188.982C136.021 189.27 135.429 189.622 134.949 190.038L134.229 189.606C134.357 189.158 134.437 188.71 134.469 188.262C134.533 187.814 134.565 187.366 134.565 186.918V157.494C134.565 156.054 134.341 154.998 133.893 154.326C133.477 153.622 132.677 153.27 131.493 153.27V152.262C132.517 152.358 133.509 152.406 134.469 152.406C135.781 152.406 137.029 152.358 138.213 152.262C139.397 152.134 140.485 151.958 141.477 151.734Z" fill="#C9A84C"/>
<mask id="path-3-inside-1_52_264" fill="white">
<path d="M10.5684 70C10.5684 31.3401 41.9084 0 80.5684 0C119.228 0 150.568 31.3401 150.568 70C150.568 108.66 119.228 140 80.5684 140C41.9084 140 10.5684 108.66 10.5684 70Z"/>
</mask>
<path d="M10.5684 70M150.568 70M150.568 70M10.5684 70M80.5684 0M150.568 70M80.5684 140M10.5684 70M80.5684 140V139.091C42.4105 139.091 11.4775 108.158 11.4775 70H10.5684H9.65927C9.65927 109.162 41.4064 140.909 80.5684 140.909V140ZM150.568 70H149.659C149.659 108.158 118.726 139.091 80.5684 139.091V140V140.909C119.73 140.909 151.477 109.162 151.477 70H150.568ZM80.5684 0V0.909091C118.726 0.909091 149.659 31.8421 149.659 70H150.568H151.477C151.477 30.838 119.73 -0.909091 80.5684 -0.909091V0ZM80.5684 0V-0.909091C41.4064 -0.909091 9.65927 30.838 9.65927 70H10.5684H11.4775C11.4775 31.8421 42.4105 0.909091 80.5684 0.909091V0Z" fill="#C9A84C" fill-opacity="0.1" mask="url(#path-3-inside-1_52_264)"/>
<mask id="path-5-inside-2_52_264" fill="white">
<path d="M20 70C20 36.8629 46.8629 10 80 10C113.137 10 140 36.8629 140 70C140 103.137 113.137 130 80 130C46.8629 130 20 103.137 20 70Z"/>
</mask>
<path d="M20 70M140 70M140 70M20 70M80 10M140 70M80 130M20 70M80 130V129.091C47.365 129.091 20.9091 102.635 20.9091 70H20H19.0909C19.0909 103.639 46.3608 130.909 80 130.909V130ZM140 70H139.091C139.091 102.635 112.635 129.091 80 129.091V130V130.909C113.639 130.909 140.909 103.639 140.909 70H140ZM80 10V10.9091C112.635 10.9091 139.091 37.365 139.091 70H140H140.909C140.909 36.3608 113.639 9.09091 80 9.09091V10ZM80 10V9.09091C46.3608 9.09091 19.0909 36.3608 19.0909 70H20H20.9091C20.9091 37.365 47.365 10.9091 80 10.9091V10Z" fill="#C9A84C" fill-opacity="0.2" mask="url(#path-5-inside-2_52_264)"/>
<path d="M89.9629 35H52.4629C49.7015 35 47.4629 37.2386 47.4629 40V92.5C47.4629 95.2614 49.7015 97.5 52.4629 97.5H89.9629C92.7243 97.5 94.9629 95.2614 94.9629 92.5V40C94.9629 37.2386 92.7243 35 89.9629 35Z" fill="#1E4080"/>
<path d="M89.9629 35H52.4629C49.7015 35 47.4629 37.2386 47.4629 40V92.5C47.4629 95.2614 49.7015 97.5 52.4629 97.5H89.9629C92.7243 97.5 94.9629 95.2614 94.9629 92.5V40C94.9629 37.2386 92.7243 35 89.9629 35Z" stroke="#C9A84C" stroke-width="1.875"/>
<path d="M48.7129 35H46.2129C44.1418 35 42.4629 36.6789 42.4629 38.75V93.75C42.4629 95.8211 44.1418 97.5 46.2129 97.5H48.7129C50.784 97.5 52.4629 95.8211 52.4629 93.75V38.75C52.4629 36.6789 50.784 35 48.7129 35Z" fill="#163460" stroke="#C9A84C" stroke-width="1.25"/>
<path d="M57.4629 50H84.9629" stroke="#C9A84C" stroke-opacity="0.5" stroke-width="1.5" stroke-linecap="round"/>
<path d="M57.4629 58.75H84.9629" stroke="#C9A84C" stroke-opacity="0.5" stroke-width="1.5" stroke-linecap="round"/>
<path d="M57.4629 67.5H84.9629" stroke="#C9A84C" stroke-opacity="0.5" stroke-width="1.5" stroke-linecap="round"/>
<path d="M57.4629 76.25H74.9629" stroke="#C9A84C" stroke-opacity="0.3" stroke-width="1.5" stroke-linecap="round"/>
<path d="M82.4629 35H92.4629V57.5L87.4629 52.5L82.4629 57.5V35Z" fill="#C9A84C"/>
<path opacity="0.9" d="M102.463 95C110.747 95 117.463 92.2018 117.463 88.75C117.463 85.2982 110.747 82.5 102.463 82.5C94.1786 82.5 87.4629 85.2982 87.4629 88.75C87.4629 92.2018 94.1786 95 102.463 95Z" fill="#C9A84C"/>
<path d="M102.463 73.75L117.463 82.5L102.463 91.25L87.4629 82.5L102.463 73.75Z" fill="#C9A84C"/>
<path d="M103.713 73.75H101.213V83.75H103.713V73.75Z" fill="#C9A84C"/>
<path d="M102.463 76.875C104.189 76.875 105.588 75.4759 105.588 73.75C105.588 72.0241 104.189 70.625 102.463 70.625C100.737 70.625 99.3379 72.0241 99.3379 73.75C99.3379 75.4759 100.737 76.875 102.463 76.875Z" fill="#E8C97A"/>
</svg>
